<?xml version="1.0" standalone="no"?>
<!DOCTYPE svg PUBLIC "-//W3C//DTD SVG 20010904//EN"
 "http://www.w3.org/TR/2001/REC-SVG-20010904/DTD/svg10.dtd">
<svg version="1.0" xmlns="http://www.w3.org/2000/svg"
 width="2032.000000pt" height="2032.000000pt" viewBox="0 0 2032.000000 2032.000000"
 preserveAspectRatio="xMidYMid meet">
<metadata>
Created by potrace 1.11, written by Peter Selinger 2001-2013
</metadata>
<g transform="translate(0.000000,2032.000000) scale(0.100000,-0.100000)"
fill="#000000" stroke="none">
<path d="M9968 19745 c-1 -1 -70 -6 -153 -10 -82 -4 -163 -8 -180 -10 -96 -10
-258 -36 -370 -59 -167 -34 -381 -108 -528 -182 -118 -59 -405 -248 -447 -294
-3 -3 -41 -34 -85 -70 -311 -253 -780 -776 -1080 -1205 -22 -32 -44 -63 -50
-69 -15 -17 -76 -106 -173 -251 -48 -71 -91 -134 -95 -140 -17 -20 -291 -457
-370 -590 -7 -10 -28 -46 -48 -80 -129 -215 -304 -520 -369 -640 -17 -33 -42
-78 -54 -100 -28 -51 -115 -214 -174 -325 -58 -109 -309 -612 -355 -710 -19
-41 -60 -128 -91 -193 -31 -65 -56 -120 -56 -122 0 -2 -15 -36 -34 -77 -18
-40 -45 -101 -60 -135 -14 -35 -37 -87 -50 -115 -31 -67 -120 -278 -180 -428
-26 -63 -50 -124 -55 -135 -5 -11 -24 -58 -41 -105 -18 -47 -39 -98 -46 -115
-15 -37 -156 -420 -194 -530 -166 -472 -345 -1048 -445 -1430 -45 -170 -135
-524 -138 -545 -3 -14 -12 -52 -20 -85 -9 -33 -18 -71 -21 -85 -2 -14 -21 -99
-41 -190 -20 -91 -38 -181 -41 -200 -3 -19 -9 -51 -14 -70 -9 -36 -64 -351
-75 -430 -3 -25 -8 -56 -10 -70 -2 -14 -6 -45 -10 -70 -3 -25 -10 -76 -15
-115 -5 -38 -12 -97 -15 -130 -4 -33 -8 -71 -10 -85 -2 -14 -7 -65 -10 -115
-4 -49 -8 -106 -10 -125 -22 -229 -22 -761 0 -1025 13 -160 20 -229 30 -307
13 -102 16 -125 20 -148 2 -14 11 -70 20 -124 9 -55 18 -102 20 -105 1 -3 6
-24 9 -46 23 -145 152 -596 210 -730 8 -16 32 -75 56 -130 115 -272 317 -602
515 -840 83 -100 156 -177 162 -172 2 3 6 17 9 33 2 16 7 43 11 59 4 17 8 35
9 40 1 6 6 35 13 65 6 30 13 66 15 80 2 14 9 46 15 73 6 26 14 64 17 85 4 20
7 42 9 47 2 10 15 77 20 105 2 8 10 49 19 90 8 41 18 91 21 110 3 19 8 42 10
50 2 8 6 26 9 40 3 14 17 84 31 155 15 72 29 141 31 155 3 14 7 33 10 42 3 10
7 28 10 40 9 48 49 232 69 313 110 459 160 647 266 995 173 569 450 1362 570
1627 10 24 19 47 19 51 0 5 6 22 14 38 8 16 40 90 71 164 72 170 126 290 230
515 90 194 279 564 390 760 34 61 73 130 87 155 66 118 363 598 379 610 3 3
12 16 19 29 7 14 17 30 22 35 4 6 41 58 81 116 102 147 109 157 231 320 105
138 289 371 318 401 7 8 23 27 36 43 155 201 644 703 946 971 44 39 87 77 95
85 9 8 41 35 71 60 30 25 62 51 70 59 25 24 190 154 270 212 263 193 530 351
790 467 254 113 534 198 795 241 200 33 318 43 511 43 140 0 267 -6 357 -17
181 -23 251 -35 409 -70 445 -100 945 -308 1441 -598 48 -29 96 -56 105 -62
180 -103 604 -398 822 -572 30 -24 73 -59 95 -76 69 -55 344 -286 363 -304 10
-10 56 -52 102 -93 337 -300 791 -751 1165 -1156 17 -17 64 -69 105 -115 41
-46 82 -90 90 -99 8 -8 42 -47 75 -85 33 -38 67 -76 75 -85 40 -44 147 -166
230 -265 51 -60 102 -121 114 -135 50 -58 309 -374 401 -490 55 -69 102 -127
106 -130 18 -16 595 -766 769 -1000 205 -275 378 -510 390 -527 8 -12 69 -94
134 -184 109 -147 120 -160 133 -143 14 19 14 23 18 89 3 61 -16 114 -123 330
-54 110 -150 306 -213 435 -130 267 -477 961 -594 1185 -191 368 -219 422
-240 460 -12 22 -46 85 -75 140 -67 126 -160 299 -205 380 -12 22 -38 69 -58
105 -46 86 -78 143 -152 275 -34 61 -77 137 -95 170 -41 74 -117 205 -130 225
-6 8 -13 22 -17 30 -4 8 -31 55 -60 104 -29 49 -53 90 -53 92 0 2 -33 59 -73
126 -41 68 -140 236 -222 373 -189 319 -473 781 -620 1010 -17 28 -55 86 -83
130 -28 44 -56 85 -61 92 -6 7 -11 14 -11 17 0 3 -24 41 -54 84 -29 43 -55 83
-57 88 -9 20 -144 219 -151 222 -5 2 -8 8 -8 13 0 7 -56 95 -70 109 -3 3 -34
48 -69 100 -62 91 -285 406 -363 514 -21 28 -46 62 -55 76 -21 30 -163 220
-201 270 -166 215 -237 306 -242 310 -3 3 -21 25 -40 50 -19 25 -40 52 -47 60
-27 35 -362 437 -379 455 -11 11 -46 52 -79 90 -293 341 -794 856 -1139 1170
-6 6 -45 39 -86 75 -41 36 -77 68 -80 71 -3 3 -50 43 -105 88 -55 45 -110 90
-122 100 -91 76 -437 321 -453 321 -5 0 -10 4 -10 9 0 5 -8 11 -17 15 -10 3
-30 14 -44 23 -118 79 -370 210 -574 298 -274 119 -702 235 -1065 289 -19 3
-98 8 -175 12 -77 3 -145 7 -152 9 -6 2 -13 2 -15 0z"/>
<path d="M5359 16038 c-80 -57 -157 -148 -276 -325 -65 -96 -147 -215 -182
-266 -82 -118 -464 -688 -557 -832 -40 -60 -105 -162 -146 -225 -102 -157
-131 -202 -143 -222 -5 -10 -89 -145 -186 -300 -160 -256 -383 -622 -434 -710
-5 -10 -39 -66 -74 -125 -35 -59 -71 -121 -81 -138 -9 -16 -37 -64 -62 -105
-24 -41 -47 -82 -51 -90 -4 -8 -13 -24 -20 -35 -12 -19 -82 -142 -135 -235
-14 -25 -47 -83 -74 -129 -26 -46 -48 -85 -48 -87 0 -2 -15 -29 -34 -61 -18
-32 -50 -89 -70 -126 -20 -37 -45 -82 -55 -100 -22 -39 -138 -253 -194 -357
-22 -41 -52 -97 -67 -125 -26 -49 -107 -202 -257 -490 -73 -141 -487 -966
-489 -975 0 -3 -29 -63 -63 -135 -199 -411 -412 -882 -561 -1240 -34 -82 -68
-163 -75 -180 -25 -59 -143 -362 -194 -500 -29 -77 -58 -156 -66 -175 -66
-164 -262 -776 -341 -1063 -14 -50 -32 -117 -40 -147 -9 -30 -17 -62 -19 -70
-2 -8 -18 -71 -35 -140 -39 -150 -45 -177 -54 -230 -1 -8 -5 -24 -9 -35 -3
-11 -8 -31 -11 -45 -2 -14 -16 -77 -29 -140 -22 -99 -55 -276 -71 -375 -27
-165 -37 -235 -42 -270 -5 -44 -13 -106 -19 -145 -2 -14 -6 -54 -10 -90 -3
-36 -8 -72 -10 -80 -2 -8 -7 -49 -10 -90 -4 -41 -9 -82 -10 -91 -2 -9 -6 -54
-9 -101 -4 -47 -8 -101 -11 -119 -2 -19 -7 -81 -10 -139 -3 -58 -8 -123 -10
-145 -11 -98 -16 -767 -7 -761 6 3 53 61 106 129 97 124 114 145 245 297 221
256 613 653 980 990 63 58 122 112 131 121 17 16 403 353 450 393 176 149 423
354 624 516 10 8 23 20 30 25 6 6 63 51 126 100 63 49 122 95 130 102 67 55
355 275 566 434 l91 69 -43 120 c-151 415 -266 880 -304 1225 -6 55 -12 116
-15 137 -26 218 -26 1053 0 1223 2 16 7 66 10 110 3 44 10 118 15 165 6 47 13
105 15 130 3 25 7 59 9 75 3 17 7 53 11 80 3 28 8 61 10 75 3 14 7 39 9 55 25
154 35 214 42 245 3 13 7 38 9 56 3 17 23 118 45 225 48 226 48 226 54 247 3
9 8 32 11 51 3 19 8 37 10 41 2 3 6 17 8 31 7 36 76 310 88 345 5 17 11 40 14
52 5 29 69 252 112 392 19 63 36 120 37 125 4 21 111 348 163 500 133 391 396
1065 538 1380 7 17 46 104 85 195 71 163 139 315 206 458 19 41 34 75 34 77 0
2 29 65 65 140 36 76 65 139 65 140 0 2 29 65 65 140 36 76 65 138 65 140 0 1
32 69 71 151 39 82 83 176 99 209 15 33 52 110 80 170 29 61 63 133 75 160 13
28 46 100 75 160 61 129 91 195 86 195 -2 0 -23 -14 -47 -32z"/>
<path d="M11228 14755 c-2 -2 -52 -6 -113 -9 -60 -4 -123 -9 -140 -11 -16 -2
-53 -6 -81 -10 -29 -3 -60 -7 -70 -9 -11 -2 -41 -7 -67 -10 -26 -4 -71 -11
-100 -17 -29 -6 -63 -12 -77 -15 -14 -2 -46 -9 -71 -15 -61 -14 -66 -15 -116
-24 -24 -4 -43 -10 -43 -14 0 -3 17 -17 38 -31 20 -13 105 -75 189 -138 198
-147 276 -213 602 -506 179 -160 285 -251 426 -364 50 -40 95 -76 100 -81 8
-6 234 -244 328 -346 16 -16 72 -75 125 -131 185 -192 459 -483 553 -588 24
-26 58 -63 74 -80 17 -18 59 -66 95 -106 36 -40 76 -85 90 -100 14 -14 52 -57
85 -96 33 -38 62 -71 65 -74 9 -8 186 -213 206 -239 10 -13 26 -31 34 -40 8
-9 33 -39 55 -66 21 -28 42 -52 45 -55 47 -39 597 -759 801 -1049 122 -174
329 -473 329 -476 0 -2 26 -42 58 -88 31 -46 62 -91 67 -100 6 -9 58 -92 116
-184 102 -161 319 -520 319 -528 0 -2 15 -30 34 -62 155 -265 391 -750 532
-1094 64 -157 95 -240 180 -489 l73 -215 73 -35 c40 -19 109 -51 153 -71 348
-159 1156 -562 1400 -698 27 -16 89 -49 137 -74 47 -26 102 -55 122 -67 20
-11 53 -29 74 -41 51 -29 143 -81 167 -96 11 -7 27 -15 35 -19 15 -7 203 -117
230 -134 8 -5 33 -19 55 -31 22 -12 51 -30 65 -39 14 -10 104 -66 200 -126
227 -140 640 -414 705 -467 6 -4 64 -48 130 -97 142 -105 215 -161 281 -215
126 -104 258 -221 354 -313 58 -55 106 -99 107 -98 1 1 -5 33 -13 71 -9 39
-17 79 -19 90 -5 25 -23 97 -36 149 -6 22 -12 46 -15 55 -2 9 -15 59 -29 111
-15 52 -27 100 -29 105 -1 6 -7 26 -13 45 -6 19 -30 96 -53 170 -40 127 -131
391 -150 435 -4 11 -25 65 -46 120 -122 329 -351 825 -581 1263 -135 257 -327
599 -507 900 -50 84 -98 165 -107 180 -49 83 -285 462 -305 489 -13 17 -24 35
-24 39 0 8 -467 706 -541 809 -28 39 -58 81 -67 95 -9 14 -20 30 -25 35 -4 6
-65 89 -135 185 -114 158 -187 257 -210 285 -4 6 -21 28 -37 50 -17 22 -56 74
-88 115 -32 41 -69 89 -82 105 -61 78 -199 253 -218 275 -12 14 -48 59 -81
100 -33 41 -62 77 -65 80 -3 3 -53 61 -111 130 -95 114 -137 162 -165 194 -5
6 -41 47 -80 91 -405 464 -893 967 -1381 1426 -75 70 -273 245 -334 295 -19
16 -42 35 -50 43 -30 29 -347 279 -435 342 -129 94 -306 213 -394 266 -42 26
-146 92 -231 148 -337 222 -645 395 -890 500 -36 15 -85 36 -109 47 -48 21
-383 134 -423 142 -12 3 -75 16 -138 30 -63 13 -133 27 -155 30 -22 4 -53 8
-70 11 -36 5 -97 12 -184 21 -61 6 -398 13 -403 9z"/>
<path d="M16105 6437 c0 -202 -7 -360 -20 -439 -2 -13 -6 -45 -10 -73 -10 -81
-16 -119 -21 -137 -3 -10 -7 -30 -10 -45 -19 -113 -94 -369 -143 -488 -68
-164 -190 -383 -287 -513 -173 -230 -480 -561 -719 -772 -33 -30 -62 -56 -65
-59 -3 -4 -39 -35 -80 -70 -41 -35 -86 -73 -100 -84 -45 -38 -294 -231 -355
-275 -33 -23 -91 -65 -130 -92 -38 -28 -75 -54 -80 -58 -6 -5 -15 -11 -20 -13
-6 -2 -71 -44 -145 -93 -74 -48 -145 -93 -157 -99 -13 -6 -23 -14 -23 -19 0
-4 -4 -8 -9 -8 -5 0 -75 -41 -156 -90 -81 -49 -150 -90 -152 -90 -3 0 -39 -20
-80 -45 -40 -25 -75 -45 -77 -45 -3 0 -35 -18 -73 -39 -489 -277 -1243 -640
-1913 -921 -107 -45 -208 -87 -225 -95 -29 -13 -119 -48 -380 -150 -305 -119
-802 -298 -1040 -374 -55 -18 -109 -36 -120 -41 -26 -12 -617 -199 -650 -206
-11 -2 -333 -97 -405 -119 -67 -20 -626 -171 -690 -185 -30 -7 -68 -19 -85
-26 l-30 -13 45 1 c25 1 108 -2 185 -6 214 -11 269 -14 415 -21 74 -3 176 -8
225 -10 357 -16 614 -26 1075 -40 775 -23 2012 -23 2495 0 33 2 139 6 235 9
96 4 207 9 245 11 39 2 117 7 175 10 58 3 132 7 165 10 33 3 101 7 150 10 50
3 108 7 130 9 22 2 84 7 137 11 54 3 110 8 125 10 32 4 142 14 223 20 30 3 76
7 103 10 26 3 71 7 100 10 28 3 68 8 87 10 19 2 64 7 100 10 36 4 76 8 90 10
21 4 130 17 235 29 53 6 138 18 154 21 9 1 41 6 71 10 67 8 92 12 150 20 25 4
56 8 70 10 35 5 111 17 135 21 10 2 37 6 60 9 22 3 63 10 90 15 28 5 66 12 85
15 19 3 46 7 60 10 14 3 41 7 60 10 19 3 73 13 120 21 47 9 96 18 110 20 14 3
48 9 75 14 28 6 61 12 75 15 170 32 325 65 525 112 61 14 117 27 125 28 501
108 1340 373 1826 579 180 75 502 228 594 281 14 7 75 42 135 76 157 88 484
303 515 338 3 4 43 37 90 74 179 144 374 352 510 544 16 24 30 45 30 49 0 3
14 26 31 51 76 110 181 373 206 513 18 104 16 127 -18 191 -150 288 -503 659
-939 989 -47 35 -87 67 -90 70 -25 30 -630 441 -817 555 -18 11 -76 47 -130
80 -111 68 -105 64 -210 126 -226 133 -306 179 -309 179 -2 0 -26 14 -54 30
-56 33 -232 130 -350 193 -41 22 -97 52 -125 67 -130 72 -788 404 -910 460
-27 12 -90 42 -139 66 -49 24 -92 44 -95 44 -3 0 -6 -105 -6 -233z"/>
<path d="M3640 6133 c-248 -186 -910 -706 -967 -757 -6 -6 -28 -25 -50 -43
-175 -144 -237 -196 -248 -206 -6 -7 -31 -28 -55 -47 -24 -19 -48 -39 -54 -45
-6 -5 -58 -50 -116 -100 -58 -49 -121 -103 -140 -121 -19 -17 -84 -75 -145
-129 -496 -441 -977 -928 -1260 -1275 -38 -47 -72 -87 -76 -90 -30 -25 -296
-409 -340 -491 -52 -99 -79 -156 -79 -169 0 -37 67 -190 123 -280 116 -185
361 -427 612 -604 39 -28 72 -52 75 -55 7 -8 201 -136 220 -145 8 -4 56 -31
105 -62 213 -129 615 -310 907 -408 108 -36 331 -102 371 -110 12 -3 50 -12
84 -21 73 -19 63 -16 223 -50 164 -35 161 -35 190 -39 92 -16 222 -36 260 -41
25 -3 52 -8 60 -10 8 -2 42 -7 75 -10 33 -4 74 -8 90 -10 17 -2 59 -7 95 -10
36 -3 83 -8 105 -10 73 -8 149 -15 255 -21 58 -3 125 -8 150 -9 320 -24 1414
-24 1561 0 13 2 64 6 113 10 50 4 97 8 105 10 9 2 45 6 81 10 80 9 161 19 225
30 11 1 43 6 70 10 28 3 57 8 65 10 8 3 33 7 55 10 22 3 51 8 65 11 14 2 36 6
50 9 14 3 50 10 80 16 30 6 69 13 85 15 193 33 896 207 1230 304 116 34 224
65 240 70 32 9 252 77 431 133 570 181 1414 485 2049 739 165 66 318 129 341
139 22 10 65 28 95 39 30 12 68 28 84 35 17 8 111 50 210 93 405 178 977 455
1230 595 44 24 112 61 150 82 785 428 1519 942 2049 1435 184 171 449 446 514
532 71 96 132 194 157 255 18 43 19 54 3 48 -7 -2 -38 -6 -68 -9 -70 -7 -90
-11 -170 -35 -65 -18 -224 -78 -283 -106 -37 -16 -180 -69 -247 -90 -25 -8
-256 -86 -515 -173 -258 -87 -495 -165 -525 -174 -30 -9 -129 -39 -220 -68
-505 -157 -1018 -294 -1605 -428 -78 -18 -404 -83 -490 -98 -16 -3 -91 -16
-165 -29 -74 -13 -157 -26 -183 -30 -27 -4 -58 -8 -68 -10 -45 -9 -339 -47
-459 -60 -30 -3 -71 -8 -90 -10 -19 -3 -64 -7 -100 -10 -66 -5 -154 -12 -245
-20 -179 -15 -351 -20 -735 -19 -239 0 -479 3 -533 7 -243 18 -346 26 -397 32
-19 2 -60 7 -90 10 -30 3 -109 13 -175 21 -66 8 -140 17 -165 20 -25 3 -52 7
-60 9 -8 2 -44 7 -80 10 -36 4 -67 8 -70 10 -3 2 -29 6 -59 10 -30 4 -63 9
-75 11 -12 2 -48 9 -81 14 -33 5 -109 18 -170 29 -60 11 -126 22 -145 26 -19
3 -42 8 -51 11 -9 2 -34 7 -55 10 -21 2 -54 9 -73 14 -35 9 -205 48 -246 56
-11 2 -29 6 -40 8 -11 2 -96 25 -190 51 -93 25 -177 48 -185 50 -26 5 -384
124 -405 134 -11 5 -54 22 -95 37 -158 57 -522 225 -665 307 -104 59 -196 115
-263 159 -41 26 -77 48 -82 48 -5 0 -10 3 -12 8 -1 4 -32 27 -68 52 -36 24
-66 48 -68 52 -2 4 -10 8 -17 8 -7 0 -15 3 -17 8 -1 4 -42 38 -90 75 -47 37
-92 73 -100 79 -7 7 -47 42 -88 78 -181 157 -426 420 -570 612 -36 48 -69 87
-75 87 -5 0 -44 -25 -85 -56z"/>
</g>
</svg>
