<svg xmlns="http://www.w3.org/2000/svg" width="2778.667" height="2778.667" preserveAspectRatio="xMidYMid meet" version="1.0" viewBox="0 0 2084 2084"><metadata>Created by potrace 1.11, written by Peter Selinger 2001-2013</metadata><g fill="#000" stroke="none"><path d="M0 10420 l0 -10420 10420 0 10420 0 0 10420 0 10420 -10420 0 -10420 0 0 -10420z m10484 7810 c156 -15 342 -53 556 -115 228 -65 378 -124 580 -226 442 -223 822 -520 1375 -1074 899 -899 1702 -1981 2638 -3550 615 -1032 1066 -1866 1656 -3070 254 -518 254 -520 255 -587 1 -37 -4 -72 -9 -77 -8 -8 -46 37 -125 147 -993 1365 -1759 2286 -2531 3047 -807 795 -1489 1287 -2207 1594 -440 188 -816 271 -1234 271 -553 0 -1055 -163 -1573 -510 -323 -217 -785 -630 -1135 -1015 -906 -997 -1592 -2263 -2116 -3904 -210 -658 -326 -1131 -511 -2085 l-58 -298 -64 68 c-86 93 -218 270 -296 398 -304 496 -460 1078 -495 1846 -28 616 56 1303 266 2160 390 1598 1021 3125 1890 4577 463 774 824 1264 1228 1669 414 413 698 587 1109 678 261 58 557 79 801 56z m-3953 -3007 c-79 -149 -736 -1575 -879 -1909 -662 -1547 -992 -2887 -992 -4034 0 -587 60 -962 241 -1504 38 -115 68 -210 67 -211 -2 -2 -102 -78 -223 -171 -788 -600 -1384 -1112 -1916 -1643 -284 -285 -447 -464 -597 -658 l-87 -112 -3 207 c-8 500 64 1191 184 1764 234 1122 691 2308 1506 3908 699 1373 1391 2541 2281 3849 272 401 299 436 368 491 57 45 64 48 50 23z m5259 -1078 c461 -73 846 -237 1418 -605 499 -321 658 -437 968 -703 323 -278 879 -834 1253 -1252 740 -829 1447 -1809 2058 -2856 585 -999 915 -1753 1108 -2529 69 -277 74 -261 -41 -150 -432 418 -1205 931 -2191 1454 -202 108 -853 430 -1066 528 l-137 63 -60 178 c-259 769 -682 1547 -1341 2469 -527 737 -871 1144 -1732 2050 -255 269 -373 386 -476 470 -75 61 -215 183 -311 269 -236 212 -369 323 -528 438 l-134 96 94 22 c103 24 309 59 433 73 128 14 563 5 685 -15z m3780 -6707 c1533 -745 2675 -1528 3036 -2083 93 -144 95 -149 79 -241 -38 -217 -159 -457 -338 -670 -586 -699 -1934 -1257 -3797 -1573 -721 -123 -1429 -195 -2370 -242 -555 -27 -1895 -22 -2710 11 -569 23 -949 41 -1000 46 l-55 6 45 13 c25 7 171 47 325 89 1320 355 2583 835 3690 1400 910 465 1491 862 1990 1361 440 439 621 725 730 1155 56 220 90 563 78 778 l-6 92 44 -19 c24 -10 141 -66 259 -123z m-10305 -365 c112 -143 314 -354 453 -475 583 -503 1291 -811 2302 -1002 363 -69 859 -133 1198 -156 198 -13 781 -13 987 0 838 54 1705 222 2730 530 486 146 1169 375 1435 480 132 53 228 80 333 94 20 2 37 2 37 -1 0 -17 -84 -160 -133 -226 -103 -140 -419 -449 -677 -664 -770 -640 -1809 -1219 -3141 -1751 -1512 -604 -2884 -1002 -3832 -1113 -352 -41 -1168 -45 -1637 -9 -992 78 -1741 306 -2360 721 -355 238 -569 449 -676 665 -64 131 -65 146 -15 241 153 284 415 606 841 1034 342 343 605 582 1040 945 324 270 1002 804 1020 803 3 0 46 -52 95 -116z" transform="translate(0.000000,2084.000000) scale(0.100000,-0.100000)"/></g></svg>