<?xml version="1.0" standalone="no"?>
<!DOCTYPE svg PUBLIC "-//W3C//DTD SVG 20010904//EN"
 "http://www.w3.org/TR/2001/REC-SVG-20010904/DTD/svg10.dtd">
<svg version="1.0" xmlns="http://www.w3.org/2000/svg"
 width="4500.000000pt" height="4500.000000pt" viewBox="0 0 4500.000000 4500.000000"
 preserveAspectRatio="xMidYMid meet">
<metadata>
Created by potrace 1.11, written by Peter Selinger 2001-2013
</metadata>
<g transform="translate(0.000000,4500.000000) scale(0.100000,-0.100000)"
fill="#000000" stroke="none">
<path d="M21625 44989 c-2968 -118 -5805 -794 -8500 -2024 -523 -239 -1254
-615 -1775 -913 -3489 -1994 -6408 -4913 -8402 -8402 -298 -521 -674 -1252
-913 -1775 -835 -1831 -1410 -3709 -1734 -5665 -159 -960 -251 -1868 -291
-2875 -13 -323 -13 -1347 0 -1670 71 -1785 325 -3447 786 -5134 568 -2080
1464 -4119 2622 -5966 1972 -3146 4712 -5777 7932 -7617 521 -298 1252 -674
1775 -913 1831 -835 3709 -1410 5665 -1734 960 -159 1868 -251 2875 -291 323
-13 1347 -13 1670 0 1785 71 3447 325 5134 786 2080 568 4119 1465 5966 2622
3146 1972 5777 4712 7617 7932 300 525 674 1252 917 1785 831 1818 1407 3703
1730 5655 159 960 251 1868 291 2875 13 323 13 1347 0 1670 -71 1783 -326
3450 -785 5130 -571 2088 -1464 4121 -2623 5970 -1972 3146 -4712 5777 -7932
7617 -525 300 -1252 674 -1785 917 -1819 831 -3703 1407 -5655 1730 -960 159
-1868 251 -2875 291 -289 11 -1415 11 -1710 -1z m2765 -3428 c129 -6 287 -17
350 -26 465 -65 793 -216 1053 -484 207 -215 343 -473 426 -812 69 -282 81
-412 121 -1284 23 -505 34 -711 55 -985 41 -533 109 -1024 161 -1172 71 -199
210 -404 395 -583 136 -131 213 -185 417 -294 552 -295 1242 -555 1857 -701
160 -37 346 -43 511 -15 135 23 309 79 437 140 223 105 533 365 1332 1115 832
781 1075 985 1369 1155 310 178 592 254 901 242 231 -9 408 -55 630 -163 125
-60 313 -181 428 -273 148 -120 876 -767 1317 -1171 748 -686 1496 -1425 1649
-1630 124 -167 226 -355 438 -810 63 -135 138 -290 167 -346 l53 -101 -46 -89
c-25 -49 -117 -237 -206 -419 -173 -355 -252 -498 -350 -640 -224 -322 -1091
-1216 -1760 -1815 -225 -202 -429 -410 -504 -515 -287 -405 -276 -781 36
-1222 138 -194 177 -282 223 -508 62 -303 133 -529 229 -730 298 -622 792
-961 1598 -1095 274 -45 388 -51 1153 -60 1044 -12 1406 -38 1818 -131 925
-210 1290 -719 1396 -1949 31 -356 38 -577 45 -1555 11 -1335 -2 -1941 -45
-2230 -122 -823 -552 -1306 -1324 -1490 -153 -36 -262 -51 -565 -79 -729 -68
-1576 -123 -2494 -161 -385 -16 -518 -30 -659 -71 -291 -84 -483 -231 -625
-479 -64 -111 -96 -197 -171 -456 -138 -477 -212 -652 -373 -881 -222 -315
-318 -513 -374 -769 -30 -135 -32 -351 -5 -479 84 -403 343 -763 876 -1220
459 -393 932 -852 1365 -1325 332 -362 518 -704 597 -1096 19 -98 23 -144 22
-319 0 -174 -4 -221 -23 -310 -66 -309 -212 -604 -423 -855 -146 -174 -1019
-1026 -1608 -1570 -458 -424 -1267 -1141 -1465 -1301 -247 -198 -530 -336
-802 -391 -66 -13 -136 -18 -278 -18 -163 0 -205 3 -295 23 -273 62 -514 176
-766 362 -120 89 -456 371 -694 580 -352 311 -645 584 -1200 1115 -444 424
-513 480 -706 572 -142 67 -262 95 -414 95 -217 0 -353 -39 -690 -202 -439
-211 -751 -328 -1610 -605 -289 -93 -426 -161 -557 -279 -147 -132 -248 -338
-287 -581 -8 -55 -20 -224 -26 -375 -17 -464 -36 -773 -115 -1850 -30 -410
-61 -808 -70 -885 -79 -719 -388 -1212 -915 -1464 -197 -94 -423 -154 -695
-186 -392 -45 -3805 -46 -4227 0 -1012 108 -1551 661 -1693 1735 -40 306 -64
628 -100 1345 -37 743 -68 1125 -116 1465 -33 230 -70 315 -210 490 -81 100
-528 544 -572 567 -14 7 -81 28 -148 46 -145 39 -160 47 -299 142 -361 248
-728 414 -1071 484 -234 48 -524 53 -746 12 -611 -113 -1179 -499 -1800 -1224
-179 -209 -294 -324 -575 -575 -267 -239 -367 -320 -533 -430 -588 -392 -1200
-483 -1785 -265 -217 81 -478 234 -690 406 -357 289 -1418 1315 -2076 2007
-592 623 -697 742 -829 940 -145 216 -239 431 -287 654 -32 147 -32 436 1 586
71 332 230 639 516 995 351 436 854 994 1435 1593 498 513 559 581 652 741
106 180 143 324 135 520 -7 176 -56 335 -157 511 -159 276 -199 348 -245 441
-143 285 -224 516 -290 826 -59 282 -173 557 -299 724 -198 261 -455 408 -846
482 -110 20 -144 21 -785 22 -702 1 -759 4 -1255 55 -309 33 -1003 118 -1138
141 -371 62 -672 173 -927 340 -142 94 -334 283 -424 419 -177 266 -281 581
-320 965 -25 245 -50 823 -60 1400 -16 862 22 2121 75 2484 46 319 149 606
301 835 89 135 290 336 428 428 250 167 571 284 938 343 218 35 1268 141 1622
165 88 5 187 13 220 16 33 3 323 9 645 14 443 6 610 12 687 24 336 51 543 141
724 313 185 177 278 380 359 781 65 326 98 405 293 693 200 298 324 578 373
844 28 147 26 413 -4 552 -45 206 -137 418 -267 613 -175 262 -387 485 -741
781 -329 275 -563 528 -990 1069 -240 305 -287 367 -366 492 -137 216 -246
474 -295 698 -26 121 -26 458 0 580 54 250 170 493 352 735 168 223 717 808
1389 1481 535 535 730 723 1148 1102 375 342 479 423 689 545 676 389 1401
347 2104 -123 114 -77 216 -156 360 -280 55 -47 237 -200 405 -340 570 -474
837 -723 1082 -1010 223 -260 377 -390 583 -491 358 -174 711 -173 1373 6 419
114 676 204 931 326 552 265 913 605 1135 1071 216 451 286 994 219 1683 -20
202 -22 570 -4 765 59 654 144 1046 295 1365 295 620 830 937 1656 981 435 23
3224 26 3760 5z"/>
<path d="M22035 30979 c-1737 -100 -3358 -685 -4710 -1699 -586 -440 -1123
-966 -1576 -1545 -646 -826 -1150 -1812 -1445 -2823 -169 -582 -273 -1161
-326 -1817 -18 -218 -17 -1056 0 -1270 80 -966 287 -1815 650 -2670 95 -225
312 -660 430 -865 761 -1320 1822 -2380 3162 -3155 177 -103 616 -324 806
-408 869 -379 1757 -610 2699 -701 574 -56 1219 -46 1790 29 1633 213 3187
840 4470 1803 571 428 1089 925 1522 1459 916 1129 1499 2466 1708 3916 64
446 80 692 80 1247 0 477 -5 598 -41 940 -162 1572 -754 3027 -1723 4240 -350
438 -782 877 -1226 1244 -268 222 -646 495 -940 678 -1329 829 -2811 1306
-4342 1398 -197 11 -780 11 -988 -1z m1140 -3233 c1106 -120 2061 -522 2900
-1220 154 -129 471 -445 607 -606 984 -1169 1406 -2664 1187 -4210 -192 -1357
-915 -2583 -2014 -3415 -698 -529 -1535 -879 -2426 -1014 -233 -35 -434 -52
-719 -58 -1319 -29 -2554 348 -3515 1072 -200 151 -307 246 -531 469 -399 400
-666 772 -919 1278 -273 548 -442 1125 -515 1769 -71 618 -39 1292 90 1901
304 1436 1147 2610 2390 3328 675 390 1538 649 2360 710 80 5 163 12 185 14
108 10 779 -3 920 -18z"/>
<path d="M22375 24469 c-806 -98 -1472 -705 -1659 -1511 -76 -328 -65 -699 29
-1028 131 -455 429 -857 830 -1120 171 -112 399 -205 616 -254 696 -154 1461
105 1934 656 260 303 416 646 471 1034 24 175 15 464 -20 632 -101 477 -371
900 -761 1191 -275 205 -566 329 -905 386 -114 20 -424 28 -535 14z"/>
</g>
</svg>
